<?xml version="1.0" encoding="utf-8"?>
<!-- Generator: Adobe Illustrator 22.1.0, SVG Export Plug-In . SVG Version: 6.00 Build 0)  -->
<svg version="1.1" id="Layer_1" xmlns="http://www.w3.org/2000/svg" x="0px" y="0px"
     viewBox="0 0 87 42" style="enable-background:new 0 0 87 42;" xml:space="preserve">
<style type="text/css">
	.st0{fill:#CE0E2D;}
	.st1{fill:#EE7623;}
</style>
    <g>
	<g>
		<g>
			<g>
				<g>
					<path class="st0" d="M7.8,27.7c-1.3-0.6-2.4-1.1-2.4-2.1c0-0.8,0.6-1.3,1.8-1.3c0.5,0,0.8,0,1.1,0.1c0.2,0,0.5,0.1,0.6,0.1
						c1,0,1.6-0.6,2.1-1.8l0.1-0.5C11,22.3,9.3,21.6,7,21.6c-3.5,0-5.4,2.3-5.4,4.6c0,1.1,0.3,2.1,0.9,2.7c0.8,0.9,1.8,1.5,2.9,1.9
						c1.5,0.7,2.7,1.3,2.7,2.3c0,0.9-0.9,1.5-2.3,1.5c-1.8,0-3.3-1-3.5-1.1l-1.5,2.7C1,36.3,3,37.6,6.1,37.6c3.3,0,5.8-1.8,5.8-4.8
						C11.9,29.7,9.6,28.5,7.8,27.7z"/>
                    <path class="st0" d="M20.6,29l5.9-7.3h-4.2L17.5,28h-0.1v-6.3h-3.5v15.4h0.2c1.5,0,3.3-0.7,3.3-3.2v-3.5h0.1l4.8,6.6h4.5
						L20.6,29z"/>
				</g>
                <g>
					<path class="st0" d="M26.7,5.1c-1.3,0.2-3.1,1.4-3.1,3.4c0,1.7,1.5,2.9,1.5,5.1c0,1.7-0.9,3-2.1,3.7c0.5,0,0.9-0.1,1.4-0.1
						c1,0,1.7,0.1,1.7,0.1l5.5-6.7C30.3,8.3,28.5,6.5,26.7,5.1z"/>
                    <path class="st0" d="M31.3,23.5c0.7-1,0.8-2.9,0.8-4.6c0.1-1.6,0.5-2.9,2.6-2.9c0.5,0,0.9,0.1,1.8,0.1c3.2,0,5.3-1.1,6.6-1.8
						c-2.6-1.7-6.5-3.4-11.4-3.7c-0.3,0.9-2.7,7.7-3,8.2c0,0,0.5,0.5,1,1.5C30.6,21.6,31.1,22.7,31.3,23.5z"/>
				</g>
			</g>
            <g>
				<path class="st1" d="M19.7,17.9c-0.2,0-0.5-0.2-0.5-0.5c0-0.3-1.4-12.9-1.6-14.9c0-0.2-0.1-0.8-0.1-1c0-0.3,0.2-0.5,0.5-0.5
					c0.7,0,4.2,0.8,8,3.5c-1.1,0.3-3.1,1.5-3.1,3.8c0,2.1,1.5,3.2,1.5,5.3C24.3,17.1,20.5,17.9,19.7,17.9z"/>
                <path class="st1" d="M31.7,24.3c0.1,0.1,0.1,0.3,0.1,0.3c0.1,0.1,0.2,0.2,0.3,0.2s0.2,0,0.3-0.1c0.3-0.1,11.8-5.5,13.6-6.3
					c0.2-0.1,0.7-0.3,0.9-0.5c0.1-0.1,0.2-0.2,0.2-0.3s0-0.1-0.1-0.2c-0.2-0.3-1.4-1.5-3.2-2.9c-1.5,0.8-3.8,2.1-7.2,2.1
					c-0.8,0-1,0-1.6,0c-1.7,0-2.1,0.7-2.2,2.2c0,0.2,0,0.7,0,1C32.8,21.3,32.7,23.2,31.7,24.3z"/>
			</g>
		</g>
	</g>
        <g>
		<g>
			<path class="st1" d="M84.1,34.4v-4.1h1.8l0.6-1.6h-2.4v-2.5h-0.2c-0.9,0-1.9,0.5-1.9,2.5l0,0h-1.6v1.6h1.6v4.9
				c0,1.4,0.8,2.1,1.9,2.1c0.9,0,2.2-0.3,2.2-2.2c-0.1,0-0.6,0.3-1,0.3C84.4,35.4,84.1,34.9,84.1,34.4z"/>
            <path class="st1" d="M74.3,31.9c0-0.9,0.7-1.8,1.6-1.8c1,0,1.6,0.9,1.6,1.8H74.3z M75.9,28.4c-2.1,0-3.8,1.7-3.8,4.3
				c0,2.7,1.7,4.3,4.2,4.3c1.9,0,3-0.9,3.2-0.9c0,0-0.2-0.3-0.2-0.5c-0.2-0.5-0.6-0.6-0.9-0.6c-0.7,0-0.8,0.3-1.7,0.3
				c-1.6,0-2.2-1.3-2.3-2.2h5.5c0-0.2,0-0.5,0-0.7C79.8,30.1,78.3,28.4,75.9,28.4"/>
            <path class="st1" d="M50.5,34.6v-8.7c0-1-0.7-1.7-1.7-1.7c-0.1,0-0.5,0-0.5,0v11.3c0,1,0.7,1.7,1.8,1.7c1.4,0,1.8-1,1.8-1.9
				c0,0-0.3,0.1-0.7,0.1C50.8,35.4,50.5,35.2,50.5,34.6z"/>
            <path class="st1" d="M58.5,34.9c-0.1,0.1-0.7,0.6-1.6,0.6c-0.7,0-1.3-0.5-1.3-1.1c0-0.6,0.6-1.1,1.7-1.1c0.3,0,1.1,0,1.1,0V34.9z
				 M58.6,36.2c0.1,0.3,0.5,0.8,1.3,0.8c0.3,0,0.9-0.1,1-0.1c-0.1-0.2-0.2-0.9-0.2-2.4v-3c0-2.2-1.4-3.1-3.5-3.1
				c-1.8,0-3.1,0.9-3.3,1c0,0,0.1,0.1,0.1,0.2c0.2,0.3,0.3,0.8,0.9,0.8c0.6,0,1-0.5,2.1-0.5c1.1,0,1.7,0.6,1.7,1.4c0,0,0,0.2,0,0.3
				c0,0-0.3,0-0.7,0c-2.9,0-4.3,1.1-4.3,2.9c0,1.6,1.1,2.6,2.9,2.6C57.8,37.2,58.5,36.3,58.6,36.2"/>
            <path class="st1" d="M41.9,35.5c-0.6,0-0.9-0.1-1-0.1v-5c0.1,0,0.5-0.1,1-0.1c1.3,0,2.4,0.8,2.4,2.6
				C44.3,34.6,43.3,35.5,41.9,35.5z M42.2,28.4c-1.8,0-3.2,0.5-3.4,0.6v12.3h0.3c1,0,1.8-0.7,1.8-1.9v-2.3c0.1,0,0.7,0.2,1.5,0.2
				c2.3,0,4.3-1.5,4.3-4.5C46.6,30.3,45,28.4,42.2,28.4"/>
            <path class="st1" d="M62.8,31.4V37H65v-5.8c0.1-0.1,0.9-0.8,1.7-0.8c1.1,0,1.6,0.8,1.6,1.8v4.9h2.2v-5.4c0-2.5-1.9-3.1-3.1-3.1
				c-1.4,0-2.3,0.8-2.5,1.1c-0.1-0.3-0.5-0.9-1.4-0.9c-0.3,0-0.8,0.1-0.8,0.1C62.6,29.1,62.8,29.8,62.8,31.4z"/>
		</g>
	</g>
</g>
</svg>
